name rise36.2859peak64.2979fall75.1499.mot
datacolumns 19
datarows 11
range 0.73833000000000 0.75499500000000
endheader
time	ground_force1_vx	ground_force1_vy	ground_force1_vz	ground_force1_px	ground_force1_py	ground_force1_pz	ground_force2_vx	ground_force2_vy	ground_force2_vz	ground_force2_px	ground_force2_py	ground_force2_pz	ground_torque1_x	ground_torque1_y	ground_torque1_z	ground_torque2_x	ground_torque2_y	ground_torque2_z	
0.73833000000000	-14.67126000000000	46.45773800000000	-12.63529100000000	0.35140800000000	0.00000000000000	0.07716800000000	-51.33854700000000	790.80666399999996	-43.56131900000000	0.15612900000000	0.00000000000000	-0.09381000000000	0.00000000000000	-8.79382500000000	0.00000000000000	0.00000000000000	-22.65605600000000	0.00000000000000	
0.74000200000000	-15.94969200000000	53.31212500000000	-13.92734300000000	0.35719700000000	0.00000000000000	0.07806700000000	-52.02134900000000	788.94938400000001	-43.24045800000000	0.15519400000000	0.00000000000000	-0.09373700000000	0.00000000000000	-9.78983700000000	0.00000000000000	0.00000000000000	-22.59386100000000	0.00000000000000	
0.74167100000000	-17.00003200000000	60.14923700000000	-15.06785500000000	0.36263600000000	0.00000000000000	0.07888200000000	-52.71755300000000	786.99225700000000	-42.91151700000000	0.15427100000000	0.00000000000000	-0.09366200000000	0.00000000000000	-10.69559400000000	0.00000000000000	0.00000000000000	-22.53385400000000	0.00000000000000	
0.74333300000000	-17.80126000000000	66.90138300000000	-16.03737600000000	0.36776600000000	0.00000000000000	0.07962600000000	-53.42691700000000	784.93225900000004	-42.57422700000000	0.15336000000000	0.00000000000000	-0.09358400000000	0.00000000000000	-11.49491600000000	0.00000000000000	0.00000000000000	-22.47600600000000	0.00000000000000	
0.74499700000000	-18.34551100000000	73.52494000000000	-16.82648000000000	0.37262300000000	0.00000000000000	0.08030800000000	-54.14913300000000	782.76633100000004	-42.22830800000000	0.15246400000000	0.00000000000000	-0.09350300000000	0.00000000000000	-12.17848400000000	0.00000000000000	0.00000000000000	-22.42027300000000	0.00000000000000	
0.74666400000000	-18.63695600000000	80.00007900000000	-17.43506800000000	0.37723600000000	0.00000000000000	0.08093800000000	-54.88382700000000	780.49138000000005	-41.87347300000000	0.15158200000000	0.00000000000000	-0.09341900000000	0.00000000000000	-12.74355100000000	0.00000000000000	0.00000000000000	-22.36659500000000	0.00000000000000	
0.74833300000000	-18.68988000000000	86.32858299999999	-17.87101300000000	0.38162800000000	0.00000000000000	0.08152300000000	-55.63055600000000	778.10429399999998	-41.50942600000000	0.15071600000000	0.00000000000000	-0.09333200000000	0.00000000000000	-13.19317100000000	0.00000000000000	0.00000000000000	-22.31489700000000	0.00000000000000	
0.75000100000000	-18.52626200000000	92.53025400000000	-18.14839200000000	0.38582000000000	0.00000000000000	0.08206800000000	-56.38880700000000	775.60193900000002	-41.13586800000000	0.14986500000000	0.00000000000000	-0.09324200000000	0.00000000000000	-13.53507800000000	0.00000000000000	0.00000000000000	-22.26508800000000	0.00000000000000	
0.75166800000000	-18.17314400000000	98.63846200000000	-18.28551400000000	0.38982600000000	0.00000000000000	0.08257800000000	-57.15799100000000	772.98117200000002	-40.75249700000000	0.14903100000000	0.00000000000000	-0.09314800000000	0.00000000000000	-13.78036700000000	0.00000000000000	0.00000000000000	-22.21706300000000	0.00000000000000	
0.75333900000000	-17.66003600000000	104.69536400000000	-18.30294500000000	0.39366300000000	0.00000000000000	0.08305800000000	-57.93744700000000	770.23884599999997	-40.35901200000000	0.14821400000000	0.00000000000000	-0.09305200000000	0.00000000000000	-13.94212500000000	0.00000000000000	0.00000000000000	-22.17069900000000	0.00000000000000	
0.75499500000000	-17.01656700000000	110.74720900000000	-18.22168700000000	0.39734100000000	0.00000000000000	0.08351100000000	-58.72643500000000	767.37181899999996	-39.95511500000000	0.14741500000000	0.00000000000000	-0.09295200000000	0.00000000000000	-14.03413800000000	0.00000000000000	0.00000000000000	-22.12586000000000	0.00000000000000	
